<?xml version="1.0" standalone="no"?>
<!DOCTYPE svg PUBLIC "-//W3C//DTD SVG 20010904//EN"
 "http://www.w3.org/TR/2001/REC-SVG-20010904/DTD/svg10.dtd">
<svg version="1.0" xmlns="http://www.w3.org/2000/svg"
 width="1518.000000pt" height="1518.000000pt" viewBox="0 0 1518.000000 1518.000000"
 preserveAspectRatio="xMidYMid meet">
<metadata>
Created by potrace 1.11, written by Peter Selinger 2001-2013
</metadata>
<g transform="translate(0.000000,1518.000000) scale(0.100000,-0.100000)"
fill="#000000" stroke="none">
<path d="M3702 14073 c-260 -449 -3696 -6462 -3699 -6473 -3 -9 841 -1479
1885 -3286 l1890 -3269 3792 0 3791 0 1880 3220 c1034 1771 1894 3245 1911
3275 l30 55 -1909 3270 -1909 3270 -3812 3 -3811 2 -39 -67z m5542 -2204 c5
-4 -154 -274 -374 -630 -211 -342 -383 -627 -383 -633 0 -6 176 -315 391 -686
l390 -675 853 -5 852 -5 453 -784 c343 -593 451 -788 444 -800 -5 -9 -206
-360 -448 -781 l-438 -765 -863 -5 -863 -5 -413 -720 -412 -720 -918 0 -918 0
-407 698 c-224 383 -415 708 -424 722 l-16 25 -852 2 -852 3 -453 775 c-249
426 -453 780 -453 787 0 7 205 363 456 792 l456 781 846 2 847 3 397 680 c232
397 395 686 392 695 -3 8 -167 281 -365 606 -197 325 -359 595 -359 600 0 14
174 114 183 105 4 -4 173 -280 375 -612 l368 -604 776 -3 776 -2 368 597 c202
329 378 615 391 635 l23 38 83 -51 c45 -28 86 -55 91 -60z m-1042 -7571 c-11
-18 -165 -285 -342 -593 -177 -308 -328 -566 -335 -573 -10 -11 -79 103 -359
587 -190 330 -346 602 -346 605 0 3 315 6 701 6 l701 0 -20 -32z"/>
<path d="M6676 10408 c-424 -724 -736 -1265 -734 -1274 2 -6 178 -311 393
-678 l389 -666 790 2 791 3 64 110 c215 370 695 1212 698 1226 5 18 -747 1334
-775 1357 -12 9 -185 12 -789 12 l-772 0 -55 -92z"/>
<path d="M3781 8344 c-356 -609 -393 -677 -382 -697 6 -12 184 -317 395 -677
l382 -655 780 -3 780 -2 83 142 c397 680 695 1196 698 1209 3 9 -164 309 -383
688 l-388 671 -786 0 -785 0 -394 -676z"/>
<path d="M9171 8843 c-57 -98 -233 -402 -392 -675 l-289 -496 182 -314 c100
-172 277 -477 393 -678 l212 -365 788 0 787 0 388 676 387 676 -391 677 -391
676 -785 0 -785 0 -104 -177z"/>
<path d="M6712 7543 c-10 -16 -135 -230 -277 -478 -142 -247 -275 -479 -295
-515 l-38 -65 1406 -3 c773 -1 1407 0 1409 2 2 2 -138 246 -310 542 l-314 539
-781 3 -781 2 -19 -27z"/>
<path d="M5951 6204 c0 -11 3 -14 6 -6 3 7 2 16 -1 19 -3 4 -6 -2 -5 -13z"/>
<path d="M6182 5798 c40 -68 179 -305 309 -528 l236 -405 787 0 787 0 296 515
c162 283 298 521 300 528 4 9 -278 12 -1391 12 l-1395 0 71 -122z"/>
</g>
</svg>
